# xmcd
#
# Track frame offsets:
#	150
#	28670
#	56715
#	78125
#	100777
#	122732
#	151632
#	174325
#	203662
#	226990
#	247520
#
# Disc length: 3588 seconds
#
# Revision: 1
# Processed by: cddbd v1.5.1PL2 Copyright (c) Steve Scherf et al.
# Submitted via: audiograbber 1.81.02
#
DISCID=720e020b
DTITLE=Wolfgang Zerbin - Oasen der Ruhe - Enstpannung für die Seele
DYEAR=2006
DGENRE=Pop
TTITLE0=Tageserwachen
TTITLE1=Melodie der Hoffnung
TTITLE2=Schwerelos
TTITLE3=Sonnenstrahlen
TTITLE4=Insel der Stille
TTITLE5=Flügel der Zuversicht
TTITLE6=Geheimnisvolle Ferne
TTITLE7=Am Horizont
TTITLE8=Dankbarkeit
TTITLE9=Klang der Freiheit
TTITLE10=Tiefes Vertrauen
EXTD=www.gerth.de - ArtNo. 939317
EXTT0=
EXTT1=
EXTT2=
EXTT3=
EXTT4=
EXTT5=
EXTT6=
EXTT7=
EXTT8=
EXTT9=
EXTT10=
PLAYORDER=
